<?xml version="1.0" standalone="no"?>
<!DOCTYPE svg PUBLIC "-//W3C//DTD SVG 1.1//EN" "http://www.w3.org/Graphics/SVG/1.1/DTD/svg11.dtd">
<svg width="100%" height="100%" viewBox="0 0 329 113" version="1.1" xmlns="http://www.w3.org/2000/svg" xmlns:xlink="http://www.w3.org/1999/xlink" xml:space="preserve" style="fill-rule:evenodd;clip-rule:evenodd;stroke-linejoin:round;stroke-miterlimit:1.41421;">
    <g transform="matrix(1,0,0,1,-2.236,-2.03)">
        <g id="Layer_1">
            <path d="M2.236,10.138L2.236,112.954L73.948,112.954L73.948,104.602L12.028,104.602L12.028,63.994L69.34,63.994L69.34,55.642L12.028,55.642L12.028,18.49L73.228,18.49L73.228,10.138L2.236,10.138Z" style="fill:black;fill-rule:nonzero;"/>
            <rect x="86.044" y="10.138" width="9.072" height="102.816" style="fill:black;fill-rule:nonzero;"/>
            <path id="database" d="M139.404,49.063C156.084,49.063 169.603,52.75 169.603,57.299C169.603,59.409 166.698,61.333 161.916,62.79C156.385,64.476 148.348,65.536 139.404,65.536C130.46,65.536 122.424,64.476 116.894,62.79C112.112,61.333 109.204,59.409 109.204,57.299C109.204,52.75 122.725,49.063 139.404,49.063ZM169.603,106.718C169.603,111.266 156.084,114.954 139.404,114.954C122.725,114.954 109.204,111.266 109.204,106.718L109.204,95.735C109.204,100.285 122.725,103.971 139.404,103.971C156.084,103.971 169.603,100.285 169.603,95.735L169.603,106.718ZM169.603,90.245C169.603,94.794 156.084,98.482 139.404,98.482C122.725,98.482 109.204,94.793 109.204,90.245L109.204,79.263C109.204,83.812 122.725,87.498 139.404,87.498C156.084,87.498 169.603,83.812 169.603,79.263L169.603,90.245ZM169.603,73.772C169.603,78.321 156.084,82.009 139.404,82.009C122.725,82.009 109.204,78.321 109.204,73.772L109.204,62.79C109.204,67.339 122.725,71.026 139.404,71.026C156.084,71.026 169.603,67.339 169.603,62.79L169.603,73.772Z" style="fill:black;fill-rule:nonzero;"/>
            <path id="cloud" d="M154.565,44.496L121.261,44.496C117.916,44.496 115.055,43.308 112.68,40.933C110.305,38.558 109.117,35.698 109.117,32.353C109.117,29.541 109.965,27.056 111.662,24.899C113.359,22.742 115.54,21.324 118.207,20.645L118.207,20.209C118.207,15.167 119.989,10.877 123.552,7.338C127.115,3.799 131.393,2.03 136.386,2.03C140.264,2.03 143.767,3.157 146.894,5.411C150.021,7.665 152.214,10.61 153.475,14.246C157.935,13.907 161.752,15.228 164.927,18.209C168.102,21.19 169.69,24.887 169.69,29.299C169.69,33.468 168.212,37.043 165.255,40.024C162.298,43.005 158.734,44.496 154.565,44.496ZM120.97,26.244C119.419,26.244 118.061,26.85 116.898,28.062C115.735,29.274 115.153,30.704 115.153,32.353C115.153,34.001 115.747,35.419 116.934,36.607C118.122,37.794 119.564,38.388 121.261,38.388L154.565,38.388C157.086,38.388 159.232,37.503 161.001,35.734C162.77,33.965 163.655,31.82 163.655,29.299C163.655,26.778 162.77,24.632 161.001,22.863C159.232,21.094 157.086,20.209 154.565,20.209C153.838,20.209 153.014,20.354 152.093,20.645L148.821,21.591L148.312,18.246C147.779,15.337 146.397,12.925 144.167,11.01C141.937,9.095 139.343,8.138 136.386,8.138C133.041,8.138 130.181,9.314 127.805,11.665C125.43,14.016 124.242,16.864 124.242,20.209C124.242,20.791 124.339,21.615 124.533,22.681L125.26,26.317L120.97,26.244Z" style="fill:black;fill-rule:nonzero;"/>
            <path d="M250.947,112.954L250.947,10.138L241.875,10.138L241.875,52.762L241.587,52.762C240.627,50.074 239.259,47.722 237.483,45.706C235.707,43.69 233.667,41.986 231.363,40.594C229.059,39.202 226.587,38.17 223.947,37.498C221.307,36.826 218.595,36.49 215.811,36.49C210.147,36.49 205.227,37.546 201.051,39.658C196.875,41.77 193.395,44.626 190.611,48.226C187.827,51.826 185.763,56.002 184.419,60.754C183.075,65.506 182.403,70.522 182.403,75.802C182.403,81.082 183.075,86.098 184.419,90.85C185.763,95.602 187.827,99.778 190.611,103.378C193.395,106.978 196.875,109.81 201.051,111.874C205.227,113.938 210.147,114.97 215.811,114.97C218.499,114.97 221.211,114.586 223.947,113.818C226.683,113.05 229.251,111.97 231.651,110.578C234.051,109.186 236.187,107.482 238.059,105.466C239.931,103.45 241.347,101.242 242.307,98.842L242.595,98.842L242.595,112.954L250.947,112.954ZM191.475,75.802C191.475,71.962 191.931,68.146 192.843,64.354C193.755,60.562 195.195,57.178 197.163,54.202C199.131,51.226 201.651,48.802 204.723,46.93C207.795,45.058 211.491,44.122 215.811,44.122C220.611,44.122 224.667,45.058 227.979,46.93C231.291,48.802 233.979,51.226 236.043,54.202C238.107,57.178 239.595,60.562 240.507,64.354C241.419,68.146 241.875,71.962 241.875,75.802C241.875,79.642 241.419,83.458 240.507,87.25C239.595,91.042 238.107,94.426 236.043,97.402C233.979,100.378 231.291,102.802 227.979,104.674C224.667,106.546 220.611,107.482 215.811,107.482C211.491,107.482 207.795,106.546 204.723,104.674C201.651,102.802 199.131,100.378 197.163,97.402C195.195,94.426 193.755,91.042 192.843,87.25C191.931,83.458 191.475,79.642 191.475,75.802Z" style="fill:black;fill-rule:nonzero;"/>
            <path d="M321.651,70.618L273.555,70.618C273.939,67.258 274.731,63.97 275.931,60.754C277.131,57.538 278.739,54.706 280.755,52.258C282.771,49.81 285.219,47.842 288.099,46.354C290.979,44.866 294.291,44.122 298.035,44.122C301.683,44.122 304.947,44.866 307.827,46.354C310.707,47.842 313.155,49.81 315.171,52.258C317.187,54.706 318.747,57.514 319.851,60.682C320.955,63.85 321.555,67.162 321.651,70.618ZM273.555,78.25L330.723,78.25C330.915,73.066 330.435,67.954 329.283,62.914C328.131,57.874 326.235,53.41 323.595,49.522C320.955,45.634 317.523,42.49 313.299,40.09C309.075,37.69 303.987,36.49 298.035,36.49C292.179,36.49 287.115,37.618 282.843,39.874C278.571,42.13 275.091,45.106 272.403,48.802C269.715,52.498 267.723,56.698 266.427,61.402C265.131,66.106 264.483,70.906 264.483,75.802C264.483,81.082 265.131,86.098 266.427,90.85C267.723,95.602 269.715,99.778 272.403,103.378C275.091,106.978 278.571,109.81 282.843,111.874C287.115,113.938 292.179,114.97 298.035,114.97C307.443,114.97 314.715,112.666 319.851,108.058C324.987,103.45 328.515,96.922 330.435,88.474L321.363,88.474C319.923,94.234 317.331,98.842 313.587,102.298C309.843,105.754 304.659,107.482 298.035,107.482C293.715,107.482 290.019,106.57 286.947,104.746C283.875,102.922 281.331,100.618 279.315,97.834C277.299,95.05 275.835,91.906 274.923,88.402C274.011,84.898 273.555,81.514 273.555,78.25Z" style="fill:black;fill-rule:nonzero;"/>
        </g>
    </g>
</svg>
